<?xml version="1.0" encoding="UTF-8" standalone="no"?>
<!-- Generator: Adobe Illustrator 19.0.0, SVG Export Plug-In . SVG Version: 6.00 Build 0)  -->

<svg
   xmlns:dc="http://purl.org/dc/elements/1.1/"
   xmlns:cc="http://creativecommons.org/ns#"
   xmlns:rdf="http://www.w3.org/1999/02/22-rdf-syntax-ns#"
   xmlns:svg="http://www.w3.org/2000/svg"
   xmlns="http://www.w3.org/2000/svg"
   xmlns:sodipodi="http://sodipodi.sourceforge.net/DTD/sodipodi-0.dtd"
   xmlns:inkscape="http://www.inkscape.org/namespaces/inkscape"
   version="1.1"
   id="Capa_1"
   x="0px"
   y="0px"
   viewBox="0 0 1199.9999 1199.9999"
   xml:space="preserve"
   sodipodi:docname="logo-pulpo-azul-border-color.svg"
   inkscape:version="0.92.2 5c3e80d, 2017-08-06"
   width="1200"
   height="1200"
   inkscape:export-filename="/Users/elena/Projects/Geocamp2020/logo-pulpo-limon-border-color.png"
   inkscape:export-xdpi="36.902435"
   inkscape:export-ydpi="36.902435"><title
     id="title971">Geocapm Octopus Logo</title><metadata
     id="metadata911"><rdf:RDF><cc:Work
         rdf:about=""><dc:format>image/svg+xml</dc:format><dc:type
           rdf:resource="http://purl.org/dc/dcmitype/StillImage" /><dc:title>Geocapm Octopus Logo</dc:title><cc:license
           rdf:resource="http://creativecommons.org/licenses/by-nc-sa/4.0/" /></cc:Work><cc:License
         rdf:about="http://creativecommons.org/licenses/by-nc-sa/4.0/"><cc:permits
           rdf:resource="http://creativecommons.org/ns#Reproduction" /><cc:permits
           rdf:resource="http://creativecommons.org/ns#Distribution" /><cc:requires
           rdf:resource="http://creativecommons.org/ns#Notice" /><cc:requires
           rdf:resource="http://creativecommons.org/ns#Attribution" /><cc:prohibits
           rdf:resource="http://creativecommons.org/ns#CommercialUse" /><cc:permits
           rdf:resource="http://creativecommons.org/ns#DerivativeWorks" /><cc:requires
           rdf:resource="http://creativecommons.org/ns#ShareAlike" /></cc:License></rdf:RDF></metadata><defs
     id="defs909" /><sodipodi:namedview
     pagecolor="#ffffff"
     bordercolor="#666666"
     borderopacity="1"
     objecttolerance="10"
     gridtolerance="10"
     guidetolerance="10"
     inkscape:pageopacity="0"
     inkscape:pageshadow="2"
     inkscape:window-width="1233"
     inkscape:window-height="755"
     id="namedview907"
     showgrid="true"
     inkscape:zoom="0.24898839"
     inkscape:cx="121.65409"
     inkscape:cy="93.456059"
     inkscape:window-x="14"
     inkscape:window-y="24"
     inkscape:window-maximized="0"
     inkscape:current-layer="layer4"
     fit-margin-top="1"
     fit-margin-left="1"
     fit-margin-right="1"
     fit-margin-bottom="1"
     inkscape:pagecheckerboard="true"><inkscape:grid
       type="xygrid"
       id="grid825" /></sodipodi:namedview><style
     type="text/css"
     id="style883">
	.st0{fill:#022362;}
</style><g
     inkscape:groupmode="layer"
     id="layer3"
     inkscape:label="background"
     transform="translate(0,1012.6953)"><circle
       style="opacity:1;fill:#ffffff;fill-opacity:1;stroke:none;stroke-width:24.72045517;stroke-linecap:square;stroke-miterlimit:4;stroke-dasharray:none;stroke-dashoffset:0;stroke-opacity:1"
       id="path833"
       cx="601"
       cy="-413.69531"
       r="600"
       inkscape:export-xdpi="36.902435"
       inkscape:export-ydpi="36.902435" /></g><g
     inkscape:groupmode="layer"
     id="layer2"
     inkscape:label="pulpo"
     transform="translate(0,1012.6953)"><g
       id="XMLID_141_"
       transform="matrix(6.4758205,0,0,6.4758205,-3719.3437,-883.83987)"
       inkscape:export-xdpi="36.902435"
       inkscape:export-ydpi="36.902435"><g
         id="XMLID_142_"><path
           id="XMLID_143_"
           class="st0"
           d="m 713.6,86.3 c -7.8,0 -17,-1.8 -19.6,-6.9 -1.6,-3.1 0,-6.4 1.6,-8.7 5.9,-8.2 9,-17.3 9,-26.4 C 704.6,20.5 685.2,1 661.3,1 637.5,1 618,20.4 618,44.3 c 0,9.1 3.1,18.2 9,26.4 1.6,2.3 3.2,5.6 1.6,8.7 -2.6,5.1 -11.9,6.9 -19.6,6.9 -8.3,0 -15,6.7 -15,15 0,8.3 6.7,15 15,15 4.3,0 10.3,-1 15.4,-2.4 -1.4,1 -2.8,2.2 -4.2,3.1 -5.9,4.2 -7.8,11.1 -4.9,17.8 1.7,4 5,7.1 9,8.5 3.7,1.3 7.6,1.1 11,-0.7 10.1,-5.3 16.6,-14.3 21.4,-20.9 1.4,-1.9 3.2,-4.4 4.4,-5.6 1.2,1.2 3,3.7 4.4,5.6 4.8,6.6 11.3,15.5 21.4,20.9 2,1 4.1,1.6 6.3,1.6 1.6,0 3.2,-0.3 4.8,-0.8 4.1,-1.4 7.3,-4.5 9,-8.5 2.9,-6.7 1,-13.6 -4.9,-17.8 -1.4,-1 -2.8,-2.1 -4.2,-3.1 5.1,1.3 11.1,2.4 15.4,2.4 8.3,0 15,-6.7 15,-15 0,-8.3 -6.4,-15.1 -14.7,-15.1 z m 0,21.3 c -5.3,0 -15,-2.2 -19.2,-4.1 -3.8,-1.6 -8.1,-0.2 -10,3.3 -1.9,3.5 -0.8,7.5 2.7,9.9 1,0.7 2.7,2 4.5,3.4 1.7,1.3 3.7,2.8 5.6,4.2 3.2,2.3 2.8,5.2 2,7.2 -0.7,1.7 -2.2,3.1 -3.9,3.7 -1,0.3 -2.5,0.6 -4,-0.2 -8.3,-4.4 -14.1,-12.4 -18.4,-18.3 -4.1,-5.7 -7.1,-9.7 -11.5,-9.7 -4.4,0 -7.4,4.1 -11.5,9.7 -4.3,5.9 -10.1,13.9 -18.4,18.3 -1.5,0.8 -3,0.6 -4,0.2 -1.7,-0.6 -3.2,-2 -3.9,-3.7 -0.9,-2 -1.2,-4.9 2,-7.2 1.9,-1.3 3.8,-2.8 5.6,-4.2 1.8,-1.4 3.5,-2.7 4.5,-3.4 3.5,-2.3 4.6,-6.4 2.7,-9.9 -1.9,-3.5 -6.2,-4.9 -10,-3.3 -4.2,1.8 -13.9,4.1 -19.2,4.1 -3.5,0 -6.3,-2.8 -6.3,-6.3 0,-3.5 2.8,-6.3 6.3,-6.3 13.6,0 23.6,-4.3 27.4,-11.7 2.8,-5.4 1.9,-11.9 -2.3,-17.8 -4.9,-6.8 -7.4,-14 -7.4,-21.3 0,-19 15.5,-34.5 34.5,-34.5 19,0 34.5,15.5 34.5,34.5 0,7.4 -2.5,14.5 -7.4,21.3 -4.3,5.9 -5.1,12.4 -2.3,17.8 3.8,7.4 13.8,11.7 27.4,11.7 3.5,0 6.3,2.8 6.3,6.3 0,3.5 -2.8,6.3 -6.3,6.3 z"
           inkscape:connector-curvature="0"
           style="fill:#022362" /></g></g><g
       id="XMLID_138_"
       transform="matrix(6.4758205,0,0,6.4758205,-3719.3437,-913.72478)"
       inkscape:export-xdpi="36.902435"
       inkscape:export-ydpi="36.902435"><g
         id="XMLID_139_"><path
           id="XMLID_140_"
           class="st0"
           d="m 646.8,43.4 c -3.2,0 -5.8,2.6 -5.8,5.8 0,3.2 2.6,5.8 5.8,5.8 3.2,0 5.8,-2.6 5.8,-5.8 0,-3.2 -2.6,-5.8 -5.8,-5.8 z"
           inkscape:connector-curvature="0"
           style="fill:#022362" /></g></g><g
       id="XMLID_135_"
       transform="matrix(6.4758205,0,0,6.4758205,-3719.3437,-913.72478)"
       inkscape:export-xdpi="36.902435"
       inkscape:export-ydpi="36.902435"><g
         id="XMLID_136_"><path
           id="XMLID_137_"
           class="st0"
           d="m 676,43.4 c -3.2,0 -5.8,2.6 -5.8,5.9 0,3.3 2.6,5.9 5.8,5.9 3.2,0 5.8,-2.6 5.8,-5.9 0,-3.3 -2.6,-5.9 -5.8,-5.9 z"
           inkscape:connector-curvature="0"
           style="fill:#022362" /></g></g></g><g
     inkscape:groupmode="layer"
     id="layer4"
     inkscape:label="hoja"
     transform="translate(0,1012.6953)"><g
       id="g917"
       transform="matrix(2.7974161,4.8873955,-4.8873955,2.7974161,903.5333,-1344.4179)"
       style="fill:#ffffff;fill-opacity:1;stroke:#95e398;stroke-width:6.89974546;stroke-miterlimit:4;stroke-dasharray:none;stroke-opacity:1"
       inkscape:export-xdpi="36.902435"
       inkscape:export-ydpi="36.902435"><path
         sodipodi:nodetypes="ccc"
         inkscape:connector-curvature="0"
         id="path911"
         d="m 160,42.304703 c 20,15 15,30 0,40 -15,-10 -20,-25 0,-40 z"
         style="fill:#ffffff;fill-opacity:1;stroke:#95e398;stroke-width:6.89974546;stroke-linecap:round;stroke-linejoin:round;stroke-miterlimit:4;stroke-dasharray:none;stroke-opacity:1" /><path
         sodipodi:nodetypes="cc"
         inkscape:connector-curvature="0"
         id="path913"
         d="M 160,59.456123 V 80.144622"
         style="fill:#ffffff;fill-opacity:1;stroke:#95e398;stroke-width:6.89974546;stroke-linecap:round;stroke-linejoin:round;stroke-miterlimit:4;stroke-dasharray:none;stroke-opacity:1" /></g></g><g
     inkscape:groupmode="layer"
     id="layer1"
     inkscape:label="lemon"
     transform="translate(0,1012.6953)"><path
       style="fill:#ffffff;fill-opacity:1;stroke:#faef50;stroke-width:38.85492325;stroke-linecap:round;stroke-linejoin:round;stroke-miterlimit:4;stroke-dasharray:none;stroke-opacity:1"
       d="m 574.41062,-330.63591 c -83.73702,2.2734 -81.46354,86.01029 2.2734,83.73682 88.2838,165.200388 381.36312,157.243482 460.55318,-12.50396 83.7369,-2.27341 81.4635,-86.01023 -2.2735,-83.7369 -47.55214,-208.20562 -424.36823,-197.97506 -460.55308,12.50404 z"
       id="path855"
       inkscape:connector-curvature="0"
       sodipodi:nodetypes="ccccc"
       inkscape:export-xdpi="36.902435"
       inkscape:export-ydpi="36.902435" /><g
       transform="matrix(5.6544894,1.925463,-1.925463,5.6544894,-2840.4796,-1916.1849)"
       id="g899"
       style="fill:#faef50;fill-opacity:1"
       inkscape:export-xdpi="36.902435"
       inkscape:export-ydpi="36.902435"><g
         id="g897"
         style="fill:#faef50;fill-opacity:1"><path
           style="fill:#faef50;fill-opacity:1"
           inkscape:connector-curvature="0"
           d="m 676,43.4 c -3.2,0 -5.8,2.6 -5.8,5.9 0,3.3 2.6,5.9 5.8,5.9 3.2,0 5.8,-2.6 5.8,-5.9 0,-3.3 -2.6,-5.9 -5.8,-5.9 z"
           class="st0"
           id="path895" /></g></g><g
       id="g908"
       transform="matrix(5.6544894,1.925463,-1.925463,5.6544894,-2988.7237,-1916.1849)"
       style="fill:#faef50;fill-opacity:1"
       inkscape:export-xdpi="36.902435"
       inkscape:export-ydpi="36.902435"><g
         id="g906"
         style="fill:#faef50;fill-opacity:1"><path
           id="path904"
           class="st0"
           d="m 676,43.4 c -3.2,0 -5.8,2.6 -5.8,5.9 0,3.3 2.6,5.9 5.8,5.9 3.2,0 5.8,-2.6 5.8,-5.9 0,-3.3 -2.6,-5.9 -5.8,-5.9 z"
           inkscape:connector-curvature="0"
           style="fill:#faef50;fill-opacity:1" /></g></g></g></svg>